<svg xmlns="http://www.w3.org/2000/svg" xmlns:xlink="http://www.w3.org/1999/xlink" contentStyleType="text/css" data-diagram-type="ACTIVITY" height="1054px" preserveAspectRatio="none" style="width:1066px;height:1054px;background:#FFFFFF;" version="1.1" viewBox="0 0 1066 1054" width="1066px" zoomAndPan="magnify"><title>Diagrama de Atividades &#8212; Backend (B): monitoramento de sinal e interrup&#231;&#227;o</title><defs/><g><g class="title" data-source-line="11"><text fill="#000000" font-family="Arial" font-size="14" font-weight="bold" lengthAdjust="spacing" textLength="521.2266" x="271.2031" y="33.1318">Diagrama de Atividades &#8212; Backend (B): monitoramento de sinal e interrup&#231;&#227;o</text></g><rect fill="none" height="20.6982" style="stroke:none;stroke-width:1;" width="1033.6328" x="15" y="49.4131"/><ellipse cx="454.0671" cy="85.1113" fill="#222222" rx="10" ry="10" style="stroke:#222222;stroke-width:1;"/><path d="M575.4412,155.4871 L575.4412,178.9102 L555.4412,182.9102 L575.4412,186.9102 L575.4412,210.3333 A0,0 0 0 0 575.4412,210.3333 L799.4836,210.3333 A0,0 0 0 0 799.4836,210.3333 L799.4836,165.4871 L789.4836,155.4871 L575.4412,155.4871 A0,0 0 0 0 575.4412,155.4871" fill="#FEFFDD" style="stroke:#181818;stroke-width:0.5;"/><path d="M789.4836,155.4871 L789.4836,165.4871 L799.4836,165.4871 L789.4836,155.4871" fill="#FEFFDD" style="stroke:#181818;stroke-width:0.5;"/><text fill="#000000" font-family="Arial" font-size="13" lengthAdjust="spacing" textLength="180.6924" x="581.4412" y="172.6809">O pong &#233; respondido pela pilha</text><text fill="#000000" font-family="Arial" font-size="13" lengthAdjust="spacing" textLength="203.0425" x="581.4412" y="187.6296">WebSocket do ESP32 (transporte),</text><text fill="#000000" font-family="Arial" font-size="13" lengthAdjust="spacing" textLength="190.0615" x="581.4412" y="202.5784">sem l&#243;gica de aplica&#231;&#227;o no rob&#244;.</text><rect fill="#F8FAFC" height="47.5977" rx="12.5" ry="12.5" style="stroke:#334155;stroke-width:0.5;" width="202.748" x="352.6931" y="159.1113"/><text fill="#000000" font-family="Arial" font-size="12" lengthAdjust="spacing" textLength="118.7402" x="362.6931" y="180.3672">Enviar ping a cada 1 s</text><text fill="#000000" font-family="Arial" font-size="12" lengthAdjust="spacing" textLength="182.748" x="362.6931" y="194.166">(frame de controle do WebSocket)</text><polygon fill="#FFF7ED" points="454.0671,115.1113,466.0671,127.1113,454.0671,139.1113,442.0671,127.1113,454.0671,115.1113" style="stroke:#334155;stroke-width:0.5;"/><polygon fill="#FFF7ED" points="404.8411,230.3333,503.2932,230.3333,515.2932,242.9822,503.2932,255.6311,404.8411,255.6311,392.8411,242.9822,404.8411,230.3333" style="stroke:#334155;stroke-width:0.5;"/><text fill="#000000" font-family="Arial" font-size="11" lengthAdjust="spacing" textLength="18.353" x="458.0671" y="265.949">n&#227;o</text><text fill="#000000" font-family="Arial" font-size="11" lengthAdjust="spacing" textLength="98.4521" x="404.8411" y="240.6511">Pong ou mensagem</text><text fill="#000000" font-family="Arial" font-size="11" lengthAdjust="spacing" textLength="79.4814" x="404.8411" y="253.3">nos &#250;ltimos 3 s?</text><text fill="#000000" font-family="Arial" font-size="11" lengthAdjust="spacing" textLength="17.1069" x="515.2932" y="240.6511">sim</text><rect fill="#F8FAFC" height="33.7988" rx="12.5" ry="12.5" style="stroke:#334155;stroke-width:0.5;" width="136.7246" x="385.7048" y="287.449"/><text fill="#000000" font-family="Arial" font-size="12" lengthAdjust="spacing" textLength="116.7246" x="395.7048" y="308.7048">Declarar sinal perdido</text><rect fill="#555555" height="6" rx="2.5" ry="2.5" style="stroke:#555555;stroke-width:1;" width="423.4434" x="242.3455" y="341.2478"/><rect fill="#F8FAFC" height="33.7988" rx="12.5" ry="12.5" style="stroke:#334155;stroke-width:0.5;" width="207.4063" x="256.3455" y="408.5466"/><text fill="#000000" font-family="Arial" font-size="12" lengthAdjust="spacing" textLength="187.4063" x="266.3455" y="429.8025">Registrar evento SINAL_PERDIDO</text><polygon fill="#F8FAFC" points="491.7517,367.2478,641.7888,367.2478,651.7888,391.0466,641.7888,414.8455,491.7517,414.8455" style="stroke:#334155;stroke-width:0.5;"/><text fill="#000000" font-family="Arial" font-size="12" lengthAdjust="spacing" textLength="88.7051" x="501.7517" y="388.5037">Notificar pain&#233;is:</text><text fill="#000000" font-family="Arial" font-size="12" lengthAdjust="spacing" textLength="130.0371" x="501.7517" y="402.3025">sinal PERDIDO (at&#233; 1 s)</text><rect fill="#555555" height="6" rx="2.5" ry="2.5" style="stroke:#555555;stroke-width:1;" width="423.4434" x="242.3455" y="503.6443"/><polygon fill="#FFF7ED" points="412.178,529.6443,495.9563,529.6443,507.9563,542.2932,495.9563,554.9421,412.178,554.9421,400.178,542.2932,412.178,529.6443" style="stroke:#334155;stroke-width:0.5;"/><text fill="#000000" font-family="Arial" font-size="11" lengthAdjust="spacing" textLength="83.7783" x="412.178" y="539.9622">Rob&#244; reconectou</text><text fill="#000000" font-family="Arial" font-size="11" lengthAdjust="spacing" textLength="69.7114" x="412.178" y="552.6111">em at&#233; 120 s?</text><rect fill="#F8FAFC" height="33.7988" rx="12.5" ry="12.5" style="stroke:#334155;stroke-width:0.5;" width="182.7031" x="26.3467" y="590.24"/><text fill="#000000" font-family="Arial" font-size="12" lengthAdjust="spacing" textLength="162.7031" x="36.3467" y="611.4958">Registrar SINAL_RETOMADO</text><polygon fill="#F8FAFC" points="59.0244,657.8376,176.3721,657.8376,186.3721,681.6365,176.3721,705.4353,59.0244,705.4353" style="stroke:#334155;stroke-width:0.5;"/><text fill="#000000" font-family="Arial" font-size="12" lengthAdjust="spacing" textLength="88.7051" x="69.0244" y="679.0935">Notificar pain&#233;is:</text><text fill="#000000" font-family="Arial" font-size="12" lengthAdjust="spacing" textLength="97.3477" x="69.0244" y="692.8923">sinal RETOMADO</text><path d="M234.3965,729.2341 L234.3965,752.6572 L214.3965,756.6572 L234.3965,760.6572 L234.3965,784.0803 A0,0 0 0 0 234.3965,784.0803 L442.5571,784.0803 A0,0 0 0 0 442.5571,784.0803 L442.5571,739.2341 L432.5571,729.2341 L234.3965,729.2341 A0,0 0 0 0 234.3965,729.2341" fill="#FEFFDD" style="stroke:#181818;stroke-width:0.5;"/><path d="M432.5571,729.2341 L432.5571,739.2341 L442.5571,739.2341 L432.5571,729.2341" fill="#FEFFDD" style="stroke:#181818;stroke-width:0.5;"/><text fill="#000000" font-family="Arial" font-size="13" lengthAdjust="spacing" textLength="187.1606" x="240.3965" y="746.428">O rob&#244; reenvia seu buffer retido.</text><text fill="#000000" font-family="Arial" font-size="13" lengthAdjust="spacing" textLength="159.7007" x="240.3965" y="761.3767">Duplicatas s&#227;o descartadas</text><text fill="#000000" font-family="Arial" font-size="13" lengthAdjust="spacing" textLength="157.5171" x="240.3965" y="776.3254">pela idempot&#234;ncia (RF-77).</text><rect fill="#F8FAFC" height="33.7988" rx="12.5" ry="12.5" style="stroke:#334155;stroke-width:0.5;" width="193.3965" x="21" y="739.7578"/><text fill="#000000" font-family="Arial" font-size="12" lengthAdjust="spacing" textLength="173.3965" x="31" y="761.0137">Retomar recep&#231;&#227;o (Diagrama A)</text><rect fill="#F8FAFC" height="47.5977" rx="12.5" ry="12.5" style="stroke:#334155;stroke-width:0.5;" width="170.7324" x="462.5571" y="590.24"/><text fill="#000000" font-family="Arial" font-size="12" lengthAdjust="spacing" textLength="150.7324" x="472.5571" y="611.4958">Tratar como rein&#237;cio do rob&#244;</text><text fill="#000000" font-family="Arial" font-size="12" lengthAdjust="spacing" textLength="71.3496" x="472.5571" y="625.2947">(Diagrama A)</text><rect fill="#F8FAFC" height="47.5977" rx="12.5" ry="12.5" style="stroke:#334155;stroke-width:0.5;" width="192.6875" x="670.4312" y="590.24"/><text fill="#000000" font-family="Arial" font-size="12" lengthAdjust="spacing" textLength="172.6875" x="680.4312" y="611.4958">Marcar corrida INTERROMPIDA</text><text fill="#000000" font-family="Arial" font-size="12" lengthAdjust="spacing" textLength="75.3516" x="680.4312" y="625.2947">(SEM_SINAL)</text><polygon fill="#F8FAFC" points="693.0747,671.6365,840.4751,671.6365,850.4751,695.4353,840.4751,719.2341,693.0747,719.2341" style="stroke:#334155;stroke-width:0.5;"/><text fill="#000000" font-family="Arial" font-size="12" lengthAdjust="spacing" textLength="127.4004" x="703.0747" y="692.8923">Notificar pain&#233;is e canal</text><text fill="#000000" font-family="Arial" font-size="12" lengthAdjust="spacing" textLength="100.7168" x="703.0747" y="706.6912">de corridas ao vivo</text><rect fill="#F8FAFC" height="47.5977" rx="12.5" ry="12.5" style="stroke:#334155;stroke-width:0.5;" width="177.3945" x="678.0776" y="792.6553"/><text fill="#000000" font-family="Arial" font-size="12" lengthAdjust="spacing" textLength="157.3945" x="688.0776" y="813.9111">Persistir lote e calcular tempo</text><text fill="#000000" font-family="Arial" font-size="12" lengthAdjust="spacing" textLength="106.0781" x="688.0776" y="827.71">pelo rel&#243;gio do rob&#244;</text><rect fill="#F8FAFC" height="47.5977" rx="12.5" ry="12.5" style="stroke:#334155;stroke-width:0.5;" width="196.7188" x="668.4155" y="875.2529"/><text fill="#000000" font-family="Arial" font-size="12" lengthAdjust="spacing" textLength="176.7188" x="678.4155" y="896.5088">Status CONCLU&#205;DA ou FALHOU</text><text fill="#000000" font-family="Arial" font-size="12" lengthAdjust="spacing" textLength="129.4102" x="678.4155" y="910.3076">e recalcular leaderboard</text><polygon fill="#FFF7ED" points="697.9819,743.033,835.5679,743.033,847.5679,755.6819,835.5679,768.3308,697.9819,768.3308,685.9819,755.6819,697.9819,743.033" style="stroke:#334155;stroke-width:0.5;"/><text fill="#000000" font-family="Arial" font-size="11" lengthAdjust="spacing" textLength="17.1069" x="770.7749" y="778.6487">sim</text><text fill="#000000" font-family="Arial" font-size="11" lengthAdjust="spacing" textLength="137.5859" x="697.9819" y="753.3508">Chega depois um lote tardio</text><text fill="#000000" font-family="Arial" font-size="11" lengthAdjust="spacing" textLength="84.3584" x="697.9819" y="765.9998">com fim_corrida?</text><text fill="#000000" font-family="Arial" font-size="11" lengthAdjust="spacing" textLength="18.353" x="847.5679" y="753.3508">n&#227;o</text><polygon fill="#FFF7ED" points="766.7749,942.8506,778.7749,954.8506,766.7749,966.8506,754.7749,954.8506,766.7749,942.8506" style="stroke:#334155;stroke-width:0.5;"/><polygon fill="#FFF7ED" points="454.0671,976.8506,454.0671,976.8506,466.0671,988.8506,454.0671,1000.8506,454.0671,1000.8506,442.0671,988.8506,454.0671,976.8506" style="stroke:#334155;stroke-width:0.5;"/><ellipse cx="454.0671" cy="1031.8506" fill="none" rx="11" ry="11" style="stroke:#222222;stroke-width:1;"/><ellipse cx="454.0671" cy="1031.8506" fill="#222222" rx="6" ry="6" style="stroke:#222222;stroke-width:1;"/><line style="stroke:#000000;stroke-width:1.5;" x1="15" x2="15" y1="49.4131" y2="1042.8506"/><polygon fill="#F8FAFC" points="909.3618,449.8455,1031.9048,449.8455,1021.9048,466.7449,1031.9048,483.6443,909.3618,483.6443" style="stroke:#334155;stroke-width:0.5;"/><text fill="#000000" font-family="Arial" font-size="12" lengthAdjust="spacing" textLength="92.543" x="919.3618" y="471.1013">Exibir "sem sinal"</text><line style="stroke:#000000;stroke-width:1.5;" x1="894.1343" x2="894.1343" y1="49.4131" y2="1042.8506"/><line style="stroke:#000000;stroke-width:1.5;" x1="1047.1323" x2="1047.1323" y1="49.4131" y2="1042.8506"/><line style="stroke:#181818;stroke-width:1;" x1="454.0671" x2="454.0671" y1="139.1113" y2="159.1113"/><polygon fill="#181818" points="450.0671,149.1113,454.0671,159.1113,458.0671,149.1113,454.0671,153.1113" style="stroke:#181818;stroke-width:1;"/><line style="stroke:#181818;stroke-width:1;" x1="515.2932" x2="811.4836" y1="242.9822" y2="242.9822"/><polygon fill="#181818" points="807.4836,193.2346,811.4836,183.2346,815.4836,193.2346,811.4836,189.2346" style="stroke:#181818;stroke-width:1;"/><line style="stroke:#181818;stroke-width:1;" x1="811.4836" x2="811.4836" y1="127.1113" y2="242.9822"/><line style="stroke:#181818;stroke-width:1;" x1="811.4836" x2="466.0671" y1="127.1113" y2="127.1113"/><polygon fill="#181818" points="476.0671,123.1113,466.0671,127.1113,476.0671,131.1113,472.0671,127.1113" style="stroke:#181818;stroke-width:1;"/><line style="stroke:#181818;stroke-width:1;" x1="454.0671" x2="454.0671" y1="206.709" y2="230.3333"/><polygon fill="#181818" points="450.0671,220.3333,454.0671,230.3333,458.0671,220.3333,454.0671,224.3333" style="stroke:#181818;stroke-width:1;"/><line style="stroke:#181818;stroke-width:1;" x1="454.0671" x2="454.0671" y1="95.1113" y2="115.1113"/><polygon fill="#181818" points="450.0671,105.1113,454.0671,115.1113,458.0671,105.1113,454.0671,109.1113" style="stroke:#181818;stroke-width:1;"/><line style="stroke:#181818;stroke-width:1;" x1="454.0671" x2="454.0671" y1="255.6311" y2="287.449"/><polygon fill="#181818" points="450.0671,277.449,454.0671,287.449,458.0671,277.449,454.0671,281.449" style="stroke:#181818;stroke-width:1;"/><line style="stroke:#181818;stroke-width:1;" x1="360.0486" x2="360.0486" y1="347.2478" y2="408.5466"/><polygon fill="#181818" points="356.0486,398.5466,360.0486,408.5466,364.0486,398.5466,360.0486,402.5466" style="stroke:#181818;stroke-width:1;"/><line style="stroke:#181818;stroke-width:1;" x1="566.7703" x2="566.7703" y1="347.2478" y2="367.2478"/><polygon fill="#181818" points="562.7703,357.2478,566.7703,367.2478,570.7703,357.2478,566.7703,361.2478" style="stroke:#181818;stroke-width:1;"/><line style="stroke:#181818;stroke-width:1;" x1="360.0486" x2="360.0486" y1="442.3455" y2="503.6443"/><polygon fill="#181818" points="356.0486,493.6443,360.0486,503.6443,364.0486,493.6443,360.0486,497.6443" style="stroke:#181818;stroke-width:1;"/><line style="stroke:#181818;stroke-width:1;" x1="454.0671" x2="454.0671" y1="321.2478" y2="341.2478"/><polygon fill="#181818" points="450.0671,331.2478,454.0671,341.2478,458.0671,331.2478,454.0671,335.2478" style="stroke:#181818;stroke-width:1;"/><line style="stroke:#181818;stroke-width:1;" x1="117.6982" x2="117.6982" y1="624.0388" y2="657.8376"/><polygon fill="#181818" points="113.6982,647.8376,117.6982,657.8376,121.6982,647.8376,117.6982,651.8376" style="stroke:#181818;stroke-width:1;"/><line style="stroke:#181818;stroke-width:1;" x1="117.6982" x2="117.6982" y1="705.4353" y2="739.7578"/><polygon fill="#181818" points="113.6982,729.7578,117.6982,739.7578,121.6982,729.7578,117.6982,733.7578" style="stroke:#181818;stroke-width:1;"/><line style="stroke:#181818;stroke-width:1;" x1="766.7749" x2="766.7749" y1="637.8376" y2="671.6365"/><polygon fill="#181818" points="762.7749,661.6365,766.7749,671.6365,770.7749,661.6365,766.7749,665.6365" style="stroke:#181818;stroke-width:1;"/><line style="stroke:#181818;stroke-width:1;" x1="766.7749" x2="766.7749" y1="840.2529" y2="875.2529"/><polygon fill="#181818" points="762.7749,865.2529,766.7749,875.2529,770.7749,865.2529,766.7749,869.2529" style="stroke:#181818;stroke-width:1;"/><line style="stroke:#181818;stroke-width:1;" x1="766.7749" x2="766.7749" y1="768.3308" y2="792.6553"/><polygon fill="#181818" points="762.7749,782.6553,766.7749,792.6553,770.7749,782.6553,766.7749,786.6553" style="stroke:#181818;stroke-width:1;"/><line style="stroke:#181818;stroke-width:1;" x1="847.5679" x2="875.1343" y1="755.6819" y2="755.6819"/><polygon fill="#181818" points="871.1343,847.4285,875.1343,857.4285,879.1343,847.4285,875.1343,851.4285" style="stroke:#181818;stroke-width:1;"/><line style="stroke:#181818;stroke-width:1;" x1="875.1343" x2="875.1343" y1="755.6819" y2="954.8506"/><line style="stroke:#181818;stroke-width:1;" x1="875.1343" x2="778.7749" y1="954.8506" y2="954.8506"/><polygon fill="#181818" points="788.7749,950.8506,778.7749,954.8506,788.7749,958.8506,784.7749,954.8506" style="stroke:#181818;stroke-width:1;"/><line style="stroke:#181818;stroke-width:1;" x1="766.7749" x2="766.7749" y1="922.8506" y2="942.8506"/><polygon fill="#181818" points="762.7749,932.8506,766.7749,942.8506,770.7749,932.8506,766.7749,936.8506" style="stroke:#181818;stroke-width:1;"/><line style="stroke:#181818;stroke-width:1;" x1="766.7749" x2="766.7749" y1="719.2341" y2="743.033"/><polygon fill="#181818" points="762.7749,733.033,766.7749,743.033,770.7749,733.033,766.7749,737.033" style="stroke:#181818;stroke-width:1;"/><line style="stroke:#181818;stroke-width:1;" x1="400.178" x2="117.6982" y1="542.2932" y2="542.2932"/><line style="stroke:#181818;stroke-width:1;" x1="117.6982" x2="117.6982" y1="542.2932" y2="590.24"/><polygon fill="#181818" points="113.6982,580.24,117.6982,590.24,121.6982,580.24,117.6982,584.24" style="stroke:#181818;stroke-width:1;"/><text fill="#000000" font-family="Arial" font-size="11" lengthAdjust="spacing" textLength="83.7461" x="117.6982" y="570.26">sim, mesmo boot</text><line style="stroke:#181818;stroke-width:1;" x1="507.9563" x2="766.7749" y1="542.2932" y2="542.2932"/><line style="stroke:#181818;stroke-width:1;" x1="766.7749" x2="766.7749" y1="542.2932" y2="590.24"/><polygon fill="#181818" points="762.7749,580.24,766.7749,590.24,770.7749,580.24,766.7749,584.24" style="stroke:#181818;stroke-width:1;"/><text fill="#000000" font-family="Arial" font-size="11" lengthAdjust="spacing" textLength="100.8906" x="766.7749" y="570.26">n&#227;o: 120 s sem sinal</text><line style="stroke:#181818;stroke-width:1;" x1="547.9233" x2="547.9233" y1="542.2932" y2="590.24"/><polygon fill="#181818" points="543.9233,580.24,547.9233,590.24,551.9233,580.24,547.9233,584.24" style="stroke:#181818;stroke-width:1;"/><text fill="#000000" font-family="Arial" font-size="11" lengthAdjust="spacing" textLength="90.4922" x="547.9233" y="565.26">sim, boot diferente</text><line style="stroke:#181818;stroke-width:1;" x1="117.6982" x2="117.6982" y1="773.5566" y2="988.8506"/><line style="stroke:#181818;stroke-width:1;" x1="117.6982" x2="442.0671" y1="988.8506" y2="988.8506"/><polygon fill="#181818" points="432.0671,984.8506,442.0671,988.8506,432.0671,992.8506,436.0671,988.8506" style="stroke:#181818;stroke-width:1;"/><line style="stroke:#181818;stroke-width:1;" x1="766.7749" x2="766.7749" y1="966.8506" y2="988.8506"/><line style="stroke:#181818;stroke-width:1;" x1="766.7749" x2="466.0671" y1="988.8506" y2="988.8506"/><polygon fill="#181818" points="476.0671,984.8506,466.0671,988.8506,476.0671,992.8506,472.0671,988.8506" style="stroke:#181818;stroke-width:1;"/><line style="stroke:#181818;stroke-width:1;" x1="547.9233" x2="547.9233" y1="637.8376" y2="988.8506"/><polygon fill="#181818" points="543.9233,978.8506,547.9233,988.8506,551.9233,978.8506,547.9233,982.8506" style="stroke:#181818;stroke-width:1;"/><line style="stroke:#181818;stroke-width:1;" x1="454.0671" x2="454.0671" y1="509.6443" y2="529.6443"/><polygon fill="#181818" points="450.0671,519.6443,454.0671,529.6443,458.0671,519.6443,454.0671,523.6443" style="stroke:#181818;stroke-width:1;"/><line style="stroke:#181818;stroke-width:1;" x1="454.0671" x2="454.0671" y1="1000.8506" y2="1020.8506"/><polygon fill="#181818" points="450.0671,1010.8506,454.0671,1020.8506,458.0671,1010.8506,454.0671,1014.8506" style="stroke:#181818;stroke-width:1;"/><line style="stroke:#181818;stroke-width:1;" x1="566.7703" x2="566.7703" y1="414.8455" y2="432.3455"/><line style="stroke:#181818;stroke-width:1;" x1="566.7703" x2="965.6333" y1="432.3455" y2="432.3455"/><line style="stroke:#181818;stroke-width:1;" x1="965.6333" x2="965.6333" y1="432.3455" y2="449.8455"/><polygon fill="#181818" points="961.6333,439.8455,965.6333,449.8455,969.6333,439.8455,965.6333,443.8455" style="stroke:#181818;stroke-width:1;"/><line style="stroke:#181818;stroke-width:1;" x1="965.6333" x2="965.6333" y1="483.6443" y2="489.6443"/><line style="stroke:#181818;stroke-width:1;" x1="965.6333" x2="566.7703" y1="489.6443" y2="489.6443"/><line style="stroke:#181818;stroke-width:1;" x1="566.7703" x2="566.7703" y1="489.6443" y2="503.6443"/><polygon fill="#181818" points="562.7703,493.6443,566.7703,503.6443,570.7703,493.6443,566.7703,497.6443" style="stroke:#181818;stroke-width:1;"/><text fill="#000000" font-family="Arial" font-size="18" font-weight="bold" lengthAdjust="spacing" textLength="75.0322" x="417.051" y="66.2969">Backend</text><text fill="#000000" font-family="Arial" font-size="18" font-weight="bold" lengthAdjust="spacing" textLength="142.998" x="899.1343" y="66.2969">Painel (frontend)</text><!--SRC=[ZLHDRzj64BtpLqoJGqWW4XexWGifI27h0nLWIuBaj1S3neeSKXilTudTfPm4FlGFzDO_KFHGf41FBL2Wn_AVz9TqPYahLkj-t4ZkpDltthpX4nX9KLXH2iWG1bvkPIOoTF37rz_2KaZwRE1KfDUeCuXFanwKHajlg0ErDzpaf1OgUW9Jvsg4nqVFJ-3tNs5Yj4V0JFhckosgFWYGfIYm17nR6Uj59g3v00QwRbimJ8ckDA1DYLq2Mz9zQELxONlmHcm5TDu82vKIsjUbwl9BntEds5Fkd7OEk7K2iMv5zT4dbHK5QQmTVedMorIeQGv6H-vQwafG1r78HQqyyvuH00oi95aVpzr6PEP6wW9oeHpUEncapC6_OviAQsgT3Oqo5XvFFfiC9iE7AeqbTRkgu-FdprwyUA2A9aE2ih_3JYOduz6zXjMDBCaPl91U8GjO-NSAOMrK5dd-zcz3_X_31GH9qxIshfeVckzD5DtkkcuZvuNraSKAXOy0UcEzbJmfDaf0ocD-1evEufnX6JCbXjOGAuhMLxXU6OBoIPzgjA7CM5bi60fW3fKX68g9HKUFcQIE2fKWUBKHeMOFm6ZZrUBu269lXNOSCaoUXY97iLFDpmNDdGc8Ij5Ja49NWZNhvfSk5R8DJ64d1susabZ62oPXQageTfpWIwsDW-OtvML93yVWFaz0EeYTB1C6W5WJT1BrHfWgcf3TsLYXPGdzA3VscirQOY6TvmBS1iTNqzdWx6enNewcetbR1w8GKdFrp7YP4t5obxuq7wJhqUSMUjS2iV1a5pcUzE7bIrFxglQlNb7PxO9wKF4OU3Drbjo6SRsLQsdX4JiKa1vn7mNhhcq_Q3Ody8xSZVJf1k8b-qQZeNbYwarzgGcalV_eKpObIeN3OClJtNglZV79eV9Myd9yCJyViER_4BelF9H7WDwKr45qi4qfnFlK3nvEbzq9GCuiXQI6TPtdo22UvjGDPQCwfCKB1uvHQM-86V-_N3WFUPGPbfNnpOyw9QHuEUcSd2G7aRfd1Pi0cQIBQEOOxBYmT86bpI2FB9Bcdr9fED618c_FWPOMZ4FMQxs6_Vm2tBcmQO2pbZOTfhEByN8vFrzCHmF6MetFhuBjoJ_OJGkV2lwhGxkl0SQ1CB2LM_CNwsKEyN231QzMPQYvfcLZgqbH9isb9bMGo_9gXqFBuZUestK95lOMQ1t5WO8O6lbsbTQqEk3PrpkVsPkmnX-jwRS0AozyxM0udmtFNZVVZ0QyhvF1sHVprw40EHTtc0hfvsVNXkXnEwexCvDsO3BdiBSff_-RgVu4]--></g></svg>